<svg xmlns="http://www.w3.org/2000/svg" width="45.876" height="46.75" viewBox="0 0 45.876 46.75">
  <metadata><?xpacket begin="﻿" id="W5M0MpCehiHzreSzNTczkc9d"?>
<x:xmpmeta xmlns:x="adobe:ns:meta/" x:xmptk="Adobe XMP Core 5.6-c138 79.159824, 2016/09/14-01:09:01        ">
   <rdf:RDF xmlns:rdf="http://www.w3.org/1999/02/22-rdf-syntax-ns#">
      <rdf:Description rdf:about=""/>
   </rdf:RDF>
</x:xmpmeta>
                                                                                                    
                                                                                                    
                                                                                                    
                                                                                                    
                                                                                                    
                                                                                                    
                                                                                                    
                                                                                                    
                                                                                                    
                                                                                                    
                                                                                                    
                                                                                                    
                                                                                                    
                                                                                                    
                                                                                                    
                                                                                                    
                                                                                                    
                                                                                                    
                                                                                                    
                                                                                                    
                           
<?xpacket end="w"?></metadata>
<defs>
    <style>
      .cls-1 {
        fill: #cac9c4;
        fill-rule: evenodd;
      }
    </style>
  </defs>
  <path id="icon" class="cls-1" d="M686.564,681.936l-2.061-2.182,13.513-12.762,2.061,2.182Zm15.485-10.847a6.006,6.006,0,1,1,6.006-6.006A6.012,6.012,0,0,1,702.049,671.089Zm0-9.009a3,3,0,1,0,3,3A3.006,3.006,0,0,0,702.049,662.08Zm15.017-1.5a12.011,12.011,0,0,1-8.494-20.507l4.1-4.144,17.026,17-4.142,4.132A11.935,11.935,0,0,1,717.066,660.577Zm-4.38-20.4-1.986,2.006a9.01,9.01,0,1,0,12.736,12.748l2.013-2.007ZM683.811,682.69l3.321-29.057,14.188-7.883,1.459,2.625-12.838,7.132L687.256,679l25.7-4.733,4.206-11.217,2.813,1.056-4.8,12.806Z" transform="translate(-683.812 -635.938)"/>
</svg>
