<svg xmlns="http://www.w3.org/2000/svg" width="49.188" height="50.063" viewBox="0 0 49.188 50.063">
  <metadata><?xpacket begin="﻿" id="W5M0MpCehiHzreSzNTczkc9d"?>
<x:xmpmeta xmlns:x="adobe:ns:meta/" x:xmptk="Adobe XMP Core 5.6-c138 79.159824, 2016/09/14-01:09:01        ">
   <rdf:RDF xmlns:rdf="http://www.w3.org/1999/02/22-rdf-syntax-ns#">
      <rdf:Description rdf:about=""/>
   </rdf:RDF>
</x:xmpmeta>
                                                                                                    
                                                                                                    
                                                                                                    
                                                                                                    
                                                                                                    
                                                                                                    
                                                                                                    
                                                                                                    
                                                                                                    
                                                                                                    
                                                                                                    
                                                                                                    
                                                                                                    
                                                                                                    
                                                                                                    
                                                                                                    
                                                                                                    
                                                                                                    
                                                                                                    
                                                                                                    
                           
<?xpacket end="w"?></metadata>
<defs>
    <style>
      .cls-1 {
        fill: #cac9c4;
        fill-rule: evenodd;
      }
    </style>
  </defs>
  <path id="icon" class="cls-1" d="M299.8,667.7h-0.028a7.836,7.836,0,0,1-7.809-7.862,8.1,8.1,0,0,1,8.117-7.81,7.175,7.175,0,0,1,5.281,2.315A7.837,7.837,0,0,1,299.8,667.7Zm0.017-12.537a4.714,4.714,0,0,0-4.719,4.685,4.7,4.7,0,0,0,4.685,4.718l0.017,1.567v-1.567A4.7,4.7,0,0,0,299.821,655.158Zm-8.485,17.153,14.05,12.643-9.966-.037-1.928-7.308a18.69,18.69,0,0,1-5.278-2.85l-7.046,1.865-4.954-8.65,4.954-4.87a18.589,18.589,0,0,1-.29-3.316,18.37,18.37,0,0,1,.205-2.66l-5.566-5.6,5.017-8.612,7.609,2.108a18.574,18.574,0,0,1,5.321-2.905l0.162-1.273,3.11,0.395-0.418,3.288-0.991.285a15.526,15.526,0,0,0-5.805,3.128l-0.633.541-6.863-1.9-2.589,4.445,5.024,5.056-0.158.814a15.586,15.586,0,0,0-.291,2.906,15.812,15.812,0,0,0,.389,3.491l0.186,0.847-4.452,4.377,2.558,4.463,6.271-1.66,0.624,0.524a15.59,15.59,0,0,0,5.646,3.035l0.845,0.251,1.758,6.664,5.143,0.018,1.906-7.15,0.72-.294a15.706,15.706,0,0,0,4.236-2.591l0.633-.54,6.864,1.9,2.588-4.446-5.021-5.052,0.156-.812a16.061,16.061,0,0,0,.293-2.916,15.216,15.216,0,0,0-.18-2.281l-0.114-.786,5.732-5.635-2.555-4.462-7.508,1.986-0.629-.56a15.646,15.646,0,0,0-4.4-2.784l-0.717-.3-1.887-7.161-7.92-.024,0.01-2.994,10.328,0.032,2.11,7.869a18.726,18.726,0,0,1,3.911,2.465l8.228-2.176,4.951,8.647-6.335,6.229a16.781,16.781,0,0,1,.11,1.947,18.68,18.68,0,0,1-.209,2.664l5.567,5.6-5.016,8.615-7.61-2.11a18.8,18.8,0,0,1-3.7,2.256Z" transform="translate(-275.531 -634.906)"/>
</svg>
